<svg width="76" height="79" viewBox="0 0 76 79" fill="none" xmlns="http://www.w3.org/2000/svg">
<path fill-rule="evenodd" clip-rule="evenodd" d="M74.8025 0.365773C75.5465 0.810633 75.9996 1.59597 76 2.44172L76 75.7105C76 77.0593 74.8689 78.1527 73.4735 78.1527H58.3147C56.9194 78.1527 55.7882 77.0593 55.7882 75.7105V68.3836H50.7353V75.7105C50.7353 77.0593 49.6042 78.1527 48.2088 78.1527H2.7324C1.33707 78.1527 0.205933 77.0593 0.205933 75.7105V48.8453C0.20676 47.7945 0.902751 46.862 1.93404 46.53L30.5236 37.3176V21.9801C30.5236 21.0559 31.0633 20.2108 31.9181 19.7967L72.3417 0.258312C73.1257 -0.121029 74.057 -0.0803552 74.8025 0.365773ZM30.5236 42.466L5.25887 50.6037V73.2682H30.5236V42.466ZM35.5765 73.2682H45.6824V65.9413C45.6824 64.5925 46.8135 63.499 48.2088 63.499H58.3147C59.71 63.499 60.8412 64.5925 60.8412 65.9413V73.2682H70.9471V6.39335L35.5765 23.4894V73.2682Z" fill="black"/>
<path d="M10.3118 53.7297H15.3648V58.6143H10.3118V53.7297ZM20.4177 53.7297H25.4706V58.6143H20.4177V53.7297ZM10.3118 63.4989H15.3648V68.3835H10.3118V63.4989ZM20.4177 63.4989H25.4706V68.3835H20.4177V63.4989ZM40.6294 43.9606H45.6824V48.8452H40.6294V43.9606ZM50.7353 43.9606H55.7883V48.8452H50.7353V43.9606ZM40.6294 53.7297H45.6824V58.6143H40.6294V53.7297ZM50.7353 53.7297H55.7883V58.6143H50.7353V53.7297ZM60.8412 43.9606H65.8941V48.8452H60.8412V43.9606ZM60.8412 53.7297H65.8941V58.6143H60.8412V53.7297ZM40.6294 34.1914H45.6824V39.076H40.6294V34.1914ZM50.7353 34.1914H55.7883V39.076H50.7353V34.1914ZM60.8412 34.1914H65.8941V39.076H60.8412V34.1914ZM40.6294 24.4222H45.6824V29.3068H40.6294V24.4222ZM50.7353 24.4222H55.7883V29.3068H50.7353V24.4222ZM60.8412 24.4222H65.8941V29.3068H60.8412V24.4222ZM60.8412 14.6531H65.8941V19.5377H60.8412V14.6531Z" fill="black"/>
</svg>
