<svg width="28" height="24" viewBox="0 0 28 24" fill="none" xmlns="http://www.w3.org/2000/svg">
<path d="M25.2221 0.953125C25.9973 0.953125 26.6541 1.22231 27.1925 1.76067C27.7308 2.29903 28 2.95583 28 3.73108V20.2696C28 21.0448 27.7308 21.7016 27.1925 22.24C26.6541 22.7783 25.9973 23.0475 25.2221 23.0475H3.19226C2.41702 23.0475 1.76021 22.7783 1.22185 22.24C0.683488 21.7016 0.414307 21.0448 0.414307 20.2696V3.73108C0.414307 2.95583 0.683488 2.29903 1.22185 1.76067C1.76021 1.22231 2.41702 0.953125 3.19226 0.953125H25.2221ZM25.2221 6.50903V3.73108L14.1749 10.6437L3.19226 3.73108V6.50903L14.1749 13.357L25.2221 6.50903Z" fill="#0E2442"/>
</svg>
