<svg width="70" height="64" viewBox="0 0 70 64" fill="none" xmlns="http://www.w3.org/2000/svg">
<path d="M62.9742 63.4878C66.8387 63.4878 69.9715 60.355 69.9715 56.4906V39.4033C69.9715 35.5388 66.8387 32.4061 62.9742 32.4061H53.2621C53.2621 29.9501 53.409 27.487 53.6959 25.031C54.1297 22.428 54.8574 20.1119 55.865 18.0897C56.8797 16.0605 58.1811 14.4722 59.7765 13.3106C61.3649 12.0091 63.3871 11.3584 65.8501 11.3584V0.512695C61.7987 0.512695 58.2581 1.38035 55.2143 3.11567C52.197 4.83339 49.6028 7.20522 47.6223 10.0569C45.6346 13.2009 44.1695 16.6462 43.284 20.2589C42.3918 24.2456 41.9552 28.3208 41.9825 32.4061V56.4906C41.9825 60.355 45.1153 63.4878 48.9798 63.4878H62.9742ZM20.9908 63.4878C24.8553 63.4878 27.9881 60.355 27.9881 56.4906V39.4033C27.9881 35.5388 24.8553 32.4061 20.9908 32.4061H11.2787C11.2787 29.9501 11.4256 27.487 11.7125 25.031C12.1463 22.428 12.874 20.1119 13.8817 18.0897C14.8962 16.0605 16.1977 14.4722 17.7931 13.3106C19.3815 12.0091 21.4037 11.3584 23.8667 11.3584V0.512695C19.8153 0.512695 16.2747 1.38035 13.2309 3.11567C10.2136 4.83339 7.61942 7.20522 5.63891 10.0569C3.65117 13.2009 2.18608 16.6462 1.30062 20.2589C0.408382 24.2456 -0.0282485 28.3208 -0.000862773 32.4061L-0.000858959 56.4906C-0.000858959 60.355 3.13191 63.4878 6.99638 63.4878H20.9908Z" fill="#CD9B43"/>
</svg>
