<svg width="70" height="79" viewBox="0 0 70 79" fill="none" xmlns="http://www.w3.org/2000/svg">
<path d="M28.6992 41.7229L20.5396 33.5633L16.0975 38.0054L28.6992 50.607L53.9024 25.4037L49.4604 20.9617L28.6992 41.7229Z" fill="#CD9B43"/>
<path d="M34.9999 78.1526L16.9967 68.9793C6.53788 63.6619 0.00695521 53.2596 0.0195494 41.9384L0.0195456 5.72424C0.0227576 2.64851 2.63109 0.155903 5.84961 0.152832L64.1503 0.152834C67.3688 0.155907 69.9771 2.64851 69.9803 5.72424L69.9803 41.9384C69.9929 53.2596 63.462 63.6619 53.0032 68.9793L34.9999 78.1526ZM5.84961 5.72424V41.9384C5.83975 51.2017 11.1844 59.7128 19.7427 64.0625L34.9999 71.8374L50.2572 64.0653C58.8164 59.7151 64.1612 51.2027 64.1503 41.9384V5.72424H5.84961Z" fill="#CD9B43"/>
</svg>
