<svg width="91" height="91" viewBox="0 0 91 91" fill="none" xmlns="http://www.w3.org/2000/svg">
<circle cx="45.5" cy="45.5" r="45.5" fill="#CD9B43"/>
<path d="M69.9901 18.0047C70.6107 18.456 70.8646 19.0579 70.7518 19.8102L63.5297 63.1427C63.4356 63.6881 63.1347 64.1113 62.6269 64.4122C62.3636 64.5627 62.0721 64.6379 61.7524 64.6379C61.5455 64.6379 61.3198 64.5909 61.0753 64.4968L48.2956 59.2778L41.4685 67.6001C41.1299 68.0327 40.6691 68.2489 40.0861 68.2489C39.8416 68.2489 39.6347 68.2113 39.4655 68.1361C39.1081 68.0044 38.8213 67.7835 38.605 67.4731C38.3887 67.1628 38.2806 66.8196 38.2806 66.4434V56.5977L62.6551 26.7219L32.4973 52.8174L21.3538 48.2471C20.6579 47.9838 20.2818 47.4666 20.2254 46.6955C20.1877 45.9432 20.4887 45.3884 21.1281 45.0311L68.0717 17.9482C68.3538 17.779 68.6547 17.6943 68.9744 17.6943C69.3506 17.6943 69.6891 17.7978 69.9901 18.0047Z" fill="#0E2442"/>
</svg>
