<svg xmlns="http://www.w3.org/2000/svg" xmlns:xlink="http://www.w3.org/1999/xlink" width="140" zoomAndPan="magnify" viewBox="0 0 104.88 37.5" height="50" preserveAspectRatio="xMidYMid meet" version="1.0"><defs><g/><clipPath id="eaa60286af"><path d="M 21.347656 6.632812 L 28.351562 6.632812 L 28.351562 29.617188 L 21.347656 29.617188 Z M 21.347656 6.632812 " clip-rule="nonzero"/></clipPath><clipPath id="e17f60e3e0"><path d="M 28.351562 8.964844 L 28.351562 29.601562 L 21.347656 27.265625 L 21.347656 6.632812 Z M 28.351562 8.964844 " clip-rule="nonzero"/></clipPath><clipPath id="a1526508d0"><path d="M 15.492188 6.625 L 21.351562 6.625 L 21.351562 13.214844 L 15.492188 13.214844 Z M 15.492188 6.625 " clip-rule="nonzero"/></clipPath><clipPath id="423acf9100"><path d="M 15.492188 8.578125 L 15.492188 13.214844 L 21.351562 11.261719 L 21.351562 6.628906 Z M 15.492188 8.578125 " clip-rule="nonzero"/></clipPath><clipPath id="1bcc11e882"><path d="M 8.171875 10.308594 L 15.492188 10.308594 L 15.492188 30.386719 L 8.171875 30.386719 Z M 8.171875 10.308594 " clip-rule="nonzero"/></clipPath><clipPath id="d1a1889e31"><path d="M 15.492188 12.746094 L 15.492188 30.371094 L 8.171875 27.933594 L 8.171875 10.308594 Z M 15.492188 12.746094 " clip-rule="nonzero"/></clipPath><clipPath id="9270a921d4"><path d="M 2.40625 10.292969 L 8.175781 10.292969 L 8.175781 18.113281 L 2.40625 18.113281 Z M 2.40625 10.292969 " clip-rule="nonzero"/></clipPath><clipPath id="578eac4099"><path d="M 2.40625 12.222656 L 2.40625 18.113281 L 8.175781 16.1875 L 8.175781 10.300781 Z M 2.40625 12.222656 " clip-rule="nonzero"/></clipPath></defs><g clip-path="url(#eaa60286af)"><g clip-path="url(#e17f60e3e0)"><path fill="#ffffff" d="M 28.351562 6.632812 L 28.351562 29.589844 L 21.347656 29.589844 L 21.347656 6.632812 Z M 28.351562 6.632812 " fill-opacity="1" fill-rule="nonzero"/></g></g><g clip-path="url(#a1526508d0)"><g clip-path="url(#423acf9100)"><path fill="#c0c0c0" d="M 15.492188 13.214844 L 15.492188 6.625 L 21.351562 6.625 L 21.351562 13.214844 Z M 15.492188 13.214844 " fill-opacity="1" fill-rule="nonzero"/></g></g><g clip-path="url(#1bcc11e882)"><g clip-path="url(#d1a1889e31)"><path fill="#ffffff" d="M 15.492188 10.308594 L 15.492188 30.386719 L 8.171875 30.386719 L 8.171875 10.308594 Z M 15.492188 10.308594 " fill-opacity="1" fill-rule="nonzero"/></g></g><g clip-path="url(#9270a921d4)"><g clip-path="url(#578eac4099)"><path fill="#c0c0c0" d="M 2.40625 18.113281 L 2.40625 10.292969 L 8.175781 10.292969 L 8.175781 18.113281 Z M 2.40625 18.113281 " fill-opacity="1" fill-rule="nonzero"/></g></g><g fill="#cd9b43" fill-opacity="1"><g transform="translate(36.699164, 19.862082)"><g><path d="M 8.3125 -6.921875 L 8.3125 0 L 7.609375 0 L 7.609375 -5.53125 L 4.890625 -0.875 L 4.546875 -0.875 L 1.828125 -5.515625 L 1.828125 0 L 1.125 0 L 1.125 -6.921875 L 1.734375 -6.921875 L 4.734375 -1.796875 L 7.71875 -6.921875 Z M 8.3125 -6.921875 "/></g></g></g><g fill="#cd9b43" fill-opacity="1"><g transform="translate(46.137117, 19.862082)"><g><path d="M 5.859375 0 L 4.265625 -2.21875 C 4.085938 -2.207031 3.90625 -2.203125 3.71875 -2.203125 L 1.859375 -2.203125 L 1.859375 0 L 1.125 0 L 1.125 -6.921875 L 3.71875 -6.921875 C 4.601562 -6.921875 5.296875 -6.707031 5.796875 -6.28125 C 6.296875 -5.863281 6.546875 -5.285156 6.546875 -4.546875 C 6.546875 -4.003906 6.410156 -3.546875 6.140625 -3.171875 C 5.867188 -2.804688 5.476562 -2.539062 4.96875 -2.375 L 6.65625 0 Z M 3.703125 -2.8125 C 4.390625 -2.8125 4.910156 -2.960938 5.265625 -3.265625 C 5.628906 -3.578125 5.8125 -4.003906 5.8125 -4.546875 C 5.8125 -5.109375 5.628906 -5.539062 5.265625 -5.84375 C 4.910156 -6.144531 4.390625 -6.296875 3.703125 -6.296875 L 1.859375 -6.296875 L 1.859375 -2.8125 Z M 3.703125 -2.8125 "/></g></g></g><g fill="#cd9b43" fill-opacity="1"><g transform="translate(53.28229, 19.862082)"><g><path d="M 5.46875 -1.84375 L 1.609375 -1.84375 L 0.78125 0 L 0.015625 0 L 3.1875 -6.921875 L 3.90625 -6.921875 L 7.078125 0 L 6.296875 0 Z M 5.203125 -2.4375 L 3.546875 -6.15625 L 1.875 -2.4375 Z M 5.203125 -2.4375 "/></g></g></g><g fill="#ffffff" fill-opacity="1"><g transform="translate(60.371201, 19.862082)"><g/></g></g><g fill="#ffffff" fill-opacity="1"><g transform="translate(62.96046, 19.862082)"><g><path d="M 5.859375 0 L 4.265625 -2.21875 C 4.085938 -2.207031 3.90625 -2.203125 3.71875 -2.203125 L 1.859375 -2.203125 L 1.859375 0 L 1.125 0 L 1.125 -6.921875 L 3.71875 -6.921875 C 4.601562 -6.921875 5.296875 -6.707031 5.796875 -6.28125 C 6.296875 -5.863281 6.546875 -5.285156 6.546875 -4.546875 C 6.546875 -4.003906 6.410156 -3.546875 6.140625 -3.171875 C 5.867188 -2.804688 5.476562 -2.539062 4.96875 -2.375 L 6.65625 0 Z M 3.703125 -2.8125 C 4.390625 -2.8125 4.910156 -2.960938 5.265625 -3.265625 C 5.628906 -3.578125 5.8125 -4.003906 5.8125 -4.546875 C 5.8125 -5.109375 5.628906 -5.539062 5.265625 -5.84375 C 4.910156 -6.144531 4.390625 -6.296875 3.703125 -6.296875 L 1.859375 -6.296875 L 1.859375 -2.8125 Z M 3.703125 -2.8125 "/></g></g></g><g fill="#ffffff" fill-opacity="1"><g transform="translate(70.105633, 19.862082)"><g><path d="M 6.015625 -0.640625 L 6.015625 0 L 1.125 0 L 1.125 -6.921875 L 5.875 -6.921875 L 5.875 -6.296875 L 1.859375 -6.296875 L 1.859375 -3.828125 L 5.4375 -3.828125 L 5.4375 -3.203125 L 1.859375 -3.203125 L 1.859375 -0.640625 Z M 6.015625 -0.640625 "/></g></g></g><g fill="#ffffff" fill-opacity="1"><g transform="translate(76.717142, 19.862082)"><g><path d="M 5.46875 -1.84375 L 1.609375 -1.84375 L 0.78125 0 L 0.015625 0 L 3.1875 -6.921875 L 3.90625 -6.921875 L 7.078125 0 L 6.296875 0 Z M 5.203125 -2.4375 L 3.546875 -6.15625 L 1.875 -2.4375 Z M 5.203125 -2.4375 "/></g></g></g><g fill="#ffffff" fill-opacity="1"><g transform="translate(83.803021, 19.862082)"><g><path d="M 1.125 -6.921875 L 1.859375 -6.921875 L 1.859375 -0.640625 L 5.734375 -0.640625 L 5.734375 0 L 1.125 0 Z M 1.125 -6.921875 "/></g></g></g><g fill="#ffffff" fill-opacity="1"><g transform="translate(89.623917, 19.862082)"><g><path d="M 2.46875 -6.296875 L 0.046875 -6.296875 L 0.046875 -6.921875 L 5.640625 -6.921875 L 5.640625 -6.296875 L 3.203125 -6.296875 L 3.203125 0 L 2.46875 0 Z M 2.46875 -6.296875 "/></g></g></g><g fill="#ffffff" fill-opacity="1"><g transform="translate(95.296572, 19.862082)"><g><path d="M 3.5 -2.390625 L 3.5 0 L 2.78125 0 L 2.78125 -2.390625 L 0.015625 -6.921875 L 0.796875 -6.921875 L 3.171875 -3.03125 L 5.53125 -6.921875 L 6.265625 -6.921875 Z M 3.5 -2.390625 "/></g></g></g><g fill="#ffffff" fill-opacity="1"><g transform="translate(36.874277, 24.347011)"><g><path d="M 0.015625 -1.84375 L 0.640625 -0.78125 L 0.640625 0 L 0.875 0 L 0.875 -0.78125 L 1.484375 -1.84375 L 1.28125 -1.84375 L 0.78125 -1 L 0.296875 -1.84375 Z M 0.015625 -1.84375 "/></g></g></g><g fill="#ffffff" fill-opacity="1"><g transform="translate(38.97849, 24.347011)"><g><path d="M 0.890625 -1.875 C 0.40625 -1.875 0.125 -1.4375 0.125 -0.90625 C 0.125 -0.390625 0.40625 0.03125 0.890625 0.03125 C 1.359375 0.03125 1.640625 -0.40625 1.640625 -0.9375 C 1.640625 -1.453125 1.375 -1.875 0.890625 -1.875 Z M 0.375 -0.90625 C 0.375 -1.359375 0.546875 -1.671875 0.890625 -1.671875 C 1.1875 -1.671875 1.40625 -1.40625 1.40625 -0.9375 C 1.40625 -0.5 1.21875 -0.15625 0.890625 -0.15625 C 0.5625 -0.15625 0.375 -0.5 0.375 -0.90625 Z M 0.375 -0.90625 "/></g></g></g><g fill="#ffffff" fill-opacity="1"><g transform="translate(41.351353, 24.347011)"><g><path d="M 0.21875 -1.84375 L 0.21875 -0.640625 C 0.21875 -0.40625 0.28125 -0.265625 0.34375 -0.171875 C 0.46875 -0.03125 0.640625 0.03125 0.859375 0.03125 C 1.140625 0.03125 1.328125 -0.09375 1.421875 -0.28125 C 1.46875 -0.359375 1.5 -0.484375 1.5 -0.65625 L 1.5 -1.84375 L 1.296875 -1.84375 L 1.296875 -0.59375 C 1.296875 -0.28125 1.109375 -0.171875 0.875 -0.171875 C 0.765625 -0.171875 0.640625 -0.203125 0.578125 -0.265625 C 0.5 -0.328125 0.453125 -0.453125 0.453125 -0.625 L 0.453125 -1.84375 Z M 0.21875 -1.84375 "/></g></g></g><g fill="#ffffff" fill-opacity="1"><g transform="translate(43.670486, 24.347011)"><g><path d="M 0.21875 -1.84375 L 0.21875 0 L 0.453125 0 L 0.453125 -0.796875 L 0.953125 -0.796875 L 1.296875 0 L 1.546875 0 L 1.1875 -0.859375 C 1.390625 -0.921875 1.53125 -1.109375 1.53125 -1.328125 C 1.53125 -1.5625 1.375 -1.84375 0.9375 -1.84375 Z M 0.453125 -0.984375 L 0.453125 -1.640625 L 0.9375 -1.640625 C 1.1875 -1.640625 1.296875 -1.5 1.296875 -1.328125 C 1.296875 -1.140625 1.171875 -0.984375 0.921875 -0.984375 Z M 0.453125 -0.984375 "/></g></g></g><g fill="#ffffff" fill-opacity="1"><g transform="translate(45.935888, 24.347011)"><g/></g></g><g fill="#ffffff" fill-opacity="1"><g transform="translate(47.341605, 24.347011)"><g><path d="M 0.921875 -1.875 C 0.4375 -1.875 0.125 -1.453125 0.125 -0.90625 C 0.125 -0.40625 0.40625 0.03125 0.890625 0.03125 C 1.125 0.03125 1.296875 -0.0625 1.40625 -0.21875 L 1.46875 0.015625 L 1.609375 0.015625 L 1.609375 -0.9375 L 0.921875 -0.9375 L 0.921875 -0.734375 L 1.375 -0.734375 L 1.375 -0.671875 C 1.375 -0.46875 1.328125 -0.390625 1.265625 -0.3125 C 1.203125 -0.234375 1.078125 -0.15625 0.921875 -0.15625 C 0.609375 -0.15625 0.375 -0.40625 0.375 -0.90625 C 0.375 -1.359375 0.5625 -1.671875 0.90625 -1.671875 C 1.140625 -1.671875 1.328125 -1.53125 1.375 -1.28125 L 1.59375 -1.34375 C 1.5 -1.6875 1.265625 -1.875 0.921875 -1.875 Z M 0.921875 -1.875 "/></g></g></g><g fill="#ffffff" fill-opacity="1"><g transform="translate(49.714468, 24.347011)"><g><path d="M 0.625 -1.84375 L 0.015625 0 L 0.21875 0 L 0.375 -0.53125 L 1.0625 -0.53125 L 1.25 0 L 1.484375 0 L 0.890625 -1.84375 Z M 1.015625 -0.71875 L 0.4375 -0.71875 L 0.734375 -1.59375 Z M 1.015625 -0.71875 "/></g></g></g><g fill="#ffffff" fill-opacity="1"><g transform="translate(51.818681, 24.347011)"><g><path d="M 0.03125 -1.84375 L 0.03125 -1.640625 L 0.5625 -1.640625 L 0.5625 0 L 0.78125 0 L 0.78125 -1.640625 L 1.3125 -1.640625 L 1.3125 -1.84375 Z M 0.03125 -1.84375 "/></g></g></g><g fill="#ffffff" fill-opacity="1"><g transform="translate(53.761701, 24.347011)"><g><path d="M 0.234375 -1.84375 L 0.234375 0 L 1.421875 0 L 1.421875 -0.203125 L 0.453125 -0.203125 L 0.453125 -0.875 L 1.203125 -0.875 L 1.203125 -1.0625 L 0.453125 -1.0625 L 0.453125 -1.640625 L 1.390625 -1.640625 L 1.390625 -1.84375 Z M 0.234375 -1.84375 "/></g></g></g><g fill="#ffffff" fill-opacity="1"><g transform="translate(55.865914, 24.347011)"><g><path d="M 0.03125 -1.84375 L 0.5 0 L 0.734375 0 L 1.109375 -1.4375 L 1.5 0 L 1.734375 0 L 2.171875 -1.84375 L 1.984375 -1.84375 L 1.640625 -0.34375 L 1.625 -0.34375 L 1.21875 -1.84375 L 1.03125 -1.84375 L 0.640625 -0.34375 L 0.625 -0.34375 L 0.265625 -1.84375 Z M 0.03125 -1.84375 "/></g></g></g><g fill="#ffffff" fill-opacity="1"><g transform="translate(58.668621, 24.347011)"><g><path d="M 0.625 -1.84375 L 0.015625 0 L 0.21875 0 L 0.375 -0.53125 L 1.0625 -0.53125 L 1.25 0 L 1.484375 0 L 0.890625 -1.84375 Z M 1.015625 -0.71875 L 0.4375 -0.71875 L 0.734375 -1.59375 Z M 1.015625 -0.71875 "/></g></g></g><g fill="#ffffff" fill-opacity="1"><g transform="translate(60.772834, 24.347011)"><g><path d="M 0.015625 -1.84375 L 0.640625 -0.78125 L 0.640625 0 L 0.875 0 L 0.875 -0.78125 L 1.484375 -1.84375 L 1.28125 -1.84375 L 0.78125 -1 L 0.296875 -1.84375 Z M 0.015625 -1.84375 "/></g></g></g><g fill="#ffffff" fill-opacity="1"><g transform="translate(62.877047, 24.347011)"><g/></g></g><g fill="#ffffff" fill-opacity="1"><g transform="translate(64.282764, 24.347011)"><g><path d="M 0.21875 -1.84375 L 0.21875 0 L 0.453125 0 L 0.453125 -0.875 L 1.203125 -0.875 L 1.203125 -1.0625 L 0.453125 -1.0625 L 0.453125 -1.640625 L 1.34375 -1.640625 L 1.34375 -1.84375 Z M 0.21875 -1.84375 "/></g></g></g><g fill="#ffffff" fill-opacity="1"><g transform="translate(66.172054, 24.347011)"><g><path d="M 0.890625 -1.875 C 0.40625 -1.875 0.125 -1.4375 0.125 -0.90625 C 0.125 -0.390625 0.40625 0.03125 0.890625 0.03125 C 1.359375 0.03125 1.640625 -0.40625 1.640625 -0.9375 C 1.640625 -1.453125 1.375 -1.875 0.890625 -1.875 Z M 0.375 -0.90625 C 0.375 -1.359375 0.546875 -1.671875 0.890625 -1.671875 C 1.1875 -1.671875 1.40625 -1.40625 1.40625 -0.9375 C 1.40625 -0.5 1.21875 -0.15625 0.890625 -0.15625 C 0.5625 -0.15625 0.375 -0.5 0.375 -0.90625 Z M 0.375 -0.90625 "/></g></g></g><g fill="#ffffff" fill-opacity="1"><g transform="translate(68.544917, 24.347011)"><g><path d="M 0.21875 -1.84375 L 0.21875 0 L 0.453125 0 L 0.453125 -0.796875 L 0.953125 -0.796875 L 1.296875 0 L 1.546875 0 L 1.1875 -0.859375 C 1.390625 -0.921875 1.53125 -1.109375 1.53125 -1.328125 C 1.53125 -1.5625 1.375 -1.84375 0.9375 -1.84375 Z M 0.453125 -0.984375 L 0.453125 -1.640625 L 0.9375 -1.640625 C 1.1875 -1.640625 1.296875 -1.5 1.296875 -1.328125 C 1.296875 -1.140625 1.171875 -0.984375 0.921875 -0.984375 Z M 0.453125 -0.984375 "/></g></g></g><g fill="#ffffff" fill-opacity="1"><g transform="translate(70.810321, 24.347011)"><g/></g></g><g fill="#ffffff" fill-opacity="1"><g transform="translate(72.216037, 24.347011)"><g><path d="M 0.203125 -1.84375 L 0.203125 0 L 0.40625 0 L 0.40625 -1.609375 L 1.34375 0 L 1.5625 0 L 1.5625 -1.84375 L 1.375 -1.84375 L 1.375 -0.34375 L 0.5 -1.84375 Z M 0.203125 -1.84375 "/></g></g></g><g fill="#ffffff" fill-opacity="1"><g transform="translate(74.588901, 24.347011)"><g><path d="M 0.234375 -1.84375 L 0.234375 0 L 1.421875 0 L 1.421875 -0.203125 L 0.453125 -0.203125 L 0.453125 -0.875 L 1.203125 -0.875 L 1.203125 -1.0625 L 0.453125 -1.0625 L 0.453125 -1.640625 L 1.390625 -1.640625 L 1.390625 -1.84375 Z M 0.234375 -1.84375 "/></g></g></g><g fill="#ffffff" fill-opacity="1"><g transform="translate(76.693114, 24.347011)"><g><path d="M 0.03125 -1.84375 L 0.5 0 L 0.734375 0 L 1.109375 -1.4375 L 1.5 0 L 1.734375 0 L 2.171875 -1.84375 L 1.984375 -1.84375 L 1.640625 -0.34375 L 1.625 -0.34375 L 1.21875 -1.84375 L 1.03125 -1.84375 L 0.640625 -0.34375 L 0.625 -0.34375 L 0.265625 -1.84375 Z M 0.03125 -1.84375 "/></g></g></g><g fill="#ffffff" fill-opacity="1"><g transform="translate(79.495818, 24.347011)"><g/></g></g><g fill="#ffffff" fill-opacity="1"><g transform="translate(80.901535, 24.347011)"><g><path d="M 0.21875 -1.84375 L 0.21875 0 L 0.984375 0 C 1.28125 0 1.546875 -0.15625 1.546875 -0.515625 C 1.546875 -0.734375 1.390625 -0.921875 1.15625 -0.96875 L 1.15625 -0.984375 C 1.359375 -1.03125 1.484375 -1.1875 1.484375 -1.390625 C 1.484375 -1.625 1.3125 -1.84375 0.96875 -1.84375 Z M 0.453125 -1.046875 L 0.453125 -1.65625 L 0.890625 -1.65625 C 1.140625 -1.65625 1.25 -1.53125 1.25 -1.375 C 1.25 -1.140625 1.078125 -1.046875 0.875 -1.046875 Z M 0.453125 -0.203125 L 0.453125 -0.875 L 0.9375 -0.875 C 1.1875 -0.875 1.3125 -0.71875 1.3125 -0.515625 C 1.3125 -0.328125 1.1875 -0.203125 0.921875 -0.203125 Z M 0.453125 -0.203125 "/></g></g></g><g fill="#ffffff" fill-opacity="1"><g transform="translate(83.166938, 24.347011)"><g><path d="M 0.234375 -1.84375 L 0.234375 0 L 1.421875 0 L 1.421875 -0.203125 L 0.453125 -0.203125 L 0.453125 -0.875 L 1.203125 -0.875 L 1.203125 -1.0625 L 0.453125 -1.0625 L 0.453125 -1.640625 L 1.390625 -1.640625 L 1.390625 -1.84375 Z M 0.234375 -1.84375 "/></g></g></g><g fill="#ffffff" fill-opacity="1"><g transform="translate(85.271151, 24.347011)"><g><path d="M 0.921875 -1.875 C 0.4375 -1.875 0.125 -1.453125 0.125 -0.90625 C 0.125 -0.40625 0.40625 0.03125 0.890625 0.03125 C 1.125 0.03125 1.296875 -0.0625 1.40625 -0.21875 L 1.46875 0.015625 L 1.609375 0.015625 L 1.609375 -0.9375 L 0.921875 -0.9375 L 0.921875 -0.734375 L 1.375 -0.734375 L 1.375 -0.671875 C 1.375 -0.46875 1.328125 -0.390625 1.265625 -0.3125 C 1.203125 -0.234375 1.078125 -0.15625 0.921875 -0.15625 C 0.609375 -0.15625 0.375 -0.40625 0.375 -0.90625 C 0.375 -1.359375 0.5625 -1.671875 0.90625 -1.671875 C 1.140625 -1.671875 1.328125 -1.53125 1.375 -1.28125 L 1.59375 -1.34375 C 1.5 -1.6875 1.265625 -1.875 0.921875 -1.875 Z M 0.921875 -1.875 "/></g></g></g><g fill="#ffffff" fill-opacity="1"><g transform="translate(87.644015, 24.347011)"><g><path d="M 0.234375 -1.84375 L 0.234375 0 L 0.46875 0 L 0.46875 -1.84375 Z M 0.234375 -1.84375 "/></g></g></g><g fill="#ffffff" fill-opacity="1"><g transform="translate(88.942271, 24.347011)"><g><path d="M 0.203125 -1.84375 L 0.203125 0 L 0.40625 0 L 0.40625 -1.609375 L 1.34375 0 L 1.5625 0 L 1.5625 -1.84375 L 1.375 -1.84375 L 1.375 -0.34375 L 0.5 -1.84375 Z M 0.203125 -1.84375 "/></g></g></g><g fill="#ffffff" fill-opacity="1"><g transform="translate(91.315135, 24.347011)"><g><path d="M 0.203125 -1.84375 L 0.203125 0 L 0.40625 0 L 0.40625 -1.609375 L 1.34375 0 L 1.5625 0 L 1.5625 -1.84375 L 1.375 -1.84375 L 1.375 -0.34375 L 0.5 -1.84375 Z M 0.203125 -1.84375 "/></g></g></g><g fill="#ffffff" fill-opacity="1"><g transform="translate(93.687998, 24.347011)"><g><path d="M 0.234375 -1.84375 L 0.234375 0 L 0.46875 0 L 0.46875 -1.84375 Z M 0.234375 -1.84375 "/></g></g></g><g fill="#ffffff" fill-opacity="1"><g transform="translate(94.986255, 24.347011)"><g><path d="M 0.203125 -1.84375 L 0.203125 0 L 0.40625 0 L 0.40625 -1.609375 L 1.34375 0 L 1.5625 0 L 1.5625 -1.84375 L 1.375 -1.84375 L 1.375 -0.34375 L 0.5 -1.84375 Z M 0.203125 -1.84375 "/></g></g></g><g fill="#ffffff" fill-opacity="1"><g transform="translate(97.359118, 24.347011)"><g><path d="M 0.921875 -1.875 C 0.4375 -1.875 0.125 -1.453125 0.125 -0.90625 C 0.125 -0.40625 0.40625 0.03125 0.890625 0.03125 C 1.125 0.03125 1.296875 -0.0625 1.40625 -0.21875 L 1.46875 0.015625 L 1.609375 0.015625 L 1.609375 -0.9375 L 0.921875 -0.9375 L 0.921875 -0.734375 L 1.375 -0.734375 L 1.375 -0.671875 C 1.375 -0.46875 1.328125 -0.390625 1.265625 -0.3125 C 1.203125 -0.234375 1.078125 -0.15625 0.921875 -0.15625 C 0.609375 -0.15625 0.375 -0.40625 0.375 -0.90625 C 0.375 -1.359375 0.5625 -1.671875 0.90625 -1.671875 C 1.140625 -1.671875 1.328125 -1.53125 1.375 -1.28125 L 1.59375 -1.34375 C 1.5 -1.6875 1.265625 -1.875 0.921875 -1.875 Z M 0.921875 -1.875 "/></g></g></g><g fill="#ffffff" fill-opacity="1"><g transform="translate(99.731982, 24.347011)"><g><path d="M 0.828125 -1.875 C 0.46875 -1.875 0.203125 -1.6875 0.203125 -1.359375 C 0.203125 -1.140625 0.359375 -0.953125 0.625 -0.890625 L 1 -0.796875 C 1.203125 -0.75 1.3125 -0.640625 1.3125 -0.5 C 1.3125 -0.296875 1.140625 -0.171875 0.875 -0.171875 C 0.59375 -0.171875 0.390625 -0.3125 0.328125 -0.546875 L 0.109375 -0.5 C 0.234375 -0.140625 0.484375 0.03125 0.859375 0.03125 C 1.3125 0.03125 1.546875 -0.21875 1.546875 -0.53125 C 1.546875 -0.765625 1.390625 -0.9375 1.140625 -1 L 0.65625 -1.125 C 0.53125 -1.15625 0.4375 -1.234375 0.4375 -1.390625 C 0.4375 -1.578125 0.625 -1.6875 0.828125 -1.6875 C 1.03125 -1.6875 1.234375 -1.5625 1.28125 -1.359375 L 1.484375 -1.421875 C 1.390625 -1.703125 1.15625 -1.875 0.828125 -1.875 Z M 0.828125 -1.875 "/></g></g></g></svg>