<svg xmlns="http://www.w3.org/2000/svg" xmlns:xlink="http://www.w3.org/1999/xlink" width="140" zoomAndPan="magnify" viewBox="0 0 104.88 37.5" height="50" preserveAspectRatio="xMidYMid meet" version="1.0"><defs><g/><clipPath id="2322ead33e"><path d="M 20.738281 6.632812 L 27.496094 6.632812 L 27.496094 28.804688 L 20.738281 28.804688 Z M 20.738281 6.632812 " clip-rule="nonzero"/></clipPath><clipPath id="1262e87523"><path d="M 27.496094 8.886719 L 27.496094 28.789062 L 20.738281 26.539062 L 20.738281 6.632812 Z M 27.496094 8.886719 " clip-rule="nonzero"/></clipPath><clipPath id="956a8110c2"><path d="M 15.085938 6.628906 L 20.734375 6.628906 L 20.734375 12.984375 L 15.085938 12.984375 Z M 15.085938 6.628906 " clip-rule="nonzero"/></clipPath><clipPath id="f0114f63a2"><path d="M 15.085938 8.511719 L 15.085938 12.984375 L 20.734375 11.101562 L 20.734375 6.628906 Z M 15.085938 8.511719 " clip-rule="nonzero"/></clipPath><clipPath id="45938de4df"><path d="M 8.027344 10.179688 L 15.089844 10.179688 L 15.089844 29.546875 L 8.027344 29.546875 Z M 8.027344 10.179688 " clip-rule="nonzero"/></clipPath><clipPath id="d44cab1f68"><path d="M 15.089844 12.53125 L 15.089844 29.535156 L 8.027344 27.179688 L 8.027344 10.179688 Z M 15.089844 12.53125 " clip-rule="nonzero"/></clipPath><clipPath id="8953dcdd0a"><path d="M 2.464844 10.164062 L 8.027344 10.164062 L 8.027344 17.707031 L 2.464844 17.707031 Z M 2.464844 10.164062 " clip-rule="nonzero"/></clipPath><clipPath id="d536640588"><path d="M 2.464844 12.027344 L 2.464844 17.707031 L 8.027344 15.851562 L 8.027344 10.171875 Z M 2.464844 12.027344 " clip-rule="nonzero"/></clipPath></defs><g clip-path="url(#2322ead33e)"><g clip-path="url(#1262e87523)"><path fill="#2e5489" d="M 27.496094 6.632812 L 27.496094 28.777344 L 20.738281 28.777344 L 20.738281 6.632812 Z M 27.496094 6.632812 " fill-opacity="1" fill-rule="nonzero"/></g></g><g clip-path="url(#956a8110c2)"><g clip-path="url(#f0114f63a2)"><path fill="#0e2442" d="M 15.085938 12.984375 L 15.085938 6.628906 L 20.734375 6.628906 L 20.734375 12.984375 Z M 15.085938 12.984375 " fill-opacity="1" fill-rule="nonzero"/></g></g><g clip-path="url(#45938de4df)"><g clip-path="url(#d44cab1f68)"><path fill="#2e5489" d="M 15.089844 10.179688 L 15.089844 29.546875 L 8.027344 29.546875 L 8.027344 10.179688 Z M 15.089844 10.179688 " fill-opacity="1" fill-rule="nonzero"/></g></g><g clip-path="url(#8953dcdd0a)"><g clip-path="url(#d536640588)"><path fill="#0e2442" d="M 2.464844 17.707031 L 2.464844 10.164062 L 8.027344 10.164062 L 8.027344 17.707031 Z M 2.464844 17.707031 " fill-opacity="1" fill-rule="nonzero"/></g></g><g fill="#cd9b43" fill-opacity="1"><g transform="translate(35.552335, 19.497541)"><g><path d="M 8.015625 -6.671875 L 8.015625 0 L 7.34375 0 L 7.34375 -5.34375 L 4.71875 -0.84375 L 4.390625 -0.84375 L 1.765625 -5.3125 L 1.765625 0 L 1.09375 0 L 1.09375 -6.671875 L 1.671875 -6.671875 L 4.5625 -1.71875 L 7.4375 -6.671875 Z M 8.015625 -6.671875 "/></g></g></g><g fill="#cd9b43" fill-opacity="1"><g transform="translate(44.653832, 19.497541)"><g><path d="M 5.640625 0 L 4.125 -2.140625 C 3.945312 -2.117188 3.765625 -2.109375 3.578125 -2.109375 L 1.796875 -2.109375 L 1.796875 0 L 1.09375 0 L 1.09375 -6.671875 L 3.578125 -6.671875 C 4.429688 -6.671875 5.097656 -6.46875 5.578125 -6.0625 C 6.066406 -5.65625 6.3125 -5.097656 6.3125 -4.390625 C 6.3125 -3.867188 6.175781 -3.425781 5.90625 -3.0625 C 5.644531 -2.707031 5.269531 -2.445312 4.78125 -2.28125 L 6.421875 0 Z M 3.5625 -2.71875 C 4.226562 -2.71875 4.734375 -2.863281 5.078125 -3.15625 C 5.429688 -3.445312 5.609375 -3.859375 5.609375 -4.390625 C 5.609375 -4.921875 5.429688 -5.332031 5.078125 -5.625 C 4.734375 -5.914062 4.226562 -6.0625 3.5625 -6.0625 L 1.796875 -6.0625 L 1.796875 -2.71875 Z M 3.5625 -2.71875 "/></g></g></g><g fill="#cd9b43" fill-opacity="1"><g transform="translate(51.544284, 19.497541)"><g><path d="M 5.265625 -1.78125 L 1.546875 -1.78125 L 0.75 0 L 0.015625 0 L 3.0625 -6.671875 L 3.765625 -6.671875 L 6.8125 0 L 6.078125 0 Z M 5.015625 -2.359375 L 3.40625 -5.9375 L 1.8125 -2.359375 Z M 5.015625 -2.359375 "/></g></g></g><g fill="#ffffff" fill-opacity="1"><g transform="translate(58.380752, 19.497541)"><g/></g></g><g fill="#0e2442" fill-opacity="1"><g transform="translate(60.879501, 19.497541)"><g><path d="M 5.640625 0 L 4.125 -2.140625 C 3.945312 -2.117188 3.765625 -2.109375 3.578125 -2.109375 L 1.796875 -2.109375 L 1.796875 0 L 1.09375 0 L 1.09375 -6.671875 L 3.578125 -6.671875 C 4.429688 -6.671875 5.097656 -6.46875 5.578125 -6.0625 C 6.066406 -5.65625 6.3125 -5.097656 6.3125 -4.390625 C 6.3125 -3.867188 6.175781 -3.425781 5.90625 -3.0625 C 5.644531 -2.707031 5.269531 -2.445312 4.78125 -2.28125 L 6.421875 0 Z M 3.5625 -2.71875 C 4.226562 -2.71875 4.734375 -2.863281 5.078125 -3.15625 C 5.429688 -3.445312 5.609375 -3.859375 5.609375 -4.390625 C 5.609375 -4.921875 5.429688 -5.332031 5.078125 -5.625 C 4.734375 -5.914062 4.226562 -6.0625 3.5625 -6.0625 L 1.796875 -6.0625 L 1.796875 -2.71875 Z M 3.5625 -2.71875 "/></g></g></g><g fill="#0e2442" fill-opacity="1"><g transform="translate(67.769953, 19.497541)"><g><path d="M 5.796875 -0.609375 L 5.796875 0 L 1.09375 0 L 1.09375 -6.671875 L 5.65625 -6.671875 L 5.65625 -6.0625 L 1.796875 -6.0625 L 1.796875 -3.6875 L 5.25 -3.6875 L 5.25 -3.09375 L 1.796875 -3.09375 L 1.796875 -0.609375 Z M 5.796875 -0.609375 "/></g></g></g><g fill="#0e2442" fill-opacity="1"><g transform="translate(74.145767, 19.497541)"><g><path d="M 5.265625 -1.78125 L 1.546875 -1.78125 L 0.75 0 L 0.015625 0 L 3.0625 -6.671875 L 3.765625 -6.671875 L 6.8125 0 L 6.078125 0 Z M 5.015625 -2.359375 L 3.40625 -5.9375 L 1.8125 -2.359375 Z M 5.015625 -2.359375 "/></g></g></g><g fill="#0e2442" fill-opacity="1"><g transform="translate(80.97904, 19.497541)"><g><path d="M 1.09375 -6.671875 L 1.796875 -6.671875 L 1.796875 -0.609375 L 5.53125 -0.609375 L 5.53125 0 L 1.09375 0 Z M 1.09375 -6.671875 "/></g></g></g><g fill="#0e2442" fill-opacity="1"><g transform="translate(86.592425, 19.497541)"><g><path d="M 2.390625 -6.0625 L 0.03125 -6.0625 L 0.03125 -6.671875 L 5.4375 -6.671875 L 5.4375 -6.0625 L 3.09375 -6.0625 L 3.09375 0 L 2.390625 0 Z M 2.390625 -6.0625 "/></g></g></g><g fill="#0e2442" fill-opacity="1"><g transform="translate(92.062855, 19.497541)"><g><path d="M 3.375 -2.3125 L 3.375 0 L 2.671875 0 L 2.671875 -2.3125 L 0.015625 -6.671875 L 0.765625 -6.671875 L 3.046875 -2.921875 L 5.34375 -6.671875 L 6.046875 -6.671875 Z M 3.375 -2.3125 "/></g></g></g><g fill="#0e2442" fill-opacity="1"><g transform="translate(36.522512, 23.719904)"><g><path d="M 0.015625 -1.78125 L 0.609375 -0.75 L 0.609375 0 L 0.84375 0 L 0.84375 -0.75 L 1.4375 -1.78125 L 1.234375 -1.78125 L 0.75 -0.953125 L 0.28125 -1.78125 Z M 0.015625 -1.78125 "/></g></g></g><g fill="#0e2442" fill-opacity="1"><g transform="translate(38.552229, 23.719904)"><g><path d="M 0.859375 -1.8125 C 0.390625 -1.8125 0.125 -1.390625 0.125 -0.875 C 0.125 -0.375 0.390625 0.03125 0.859375 0.03125 C 1.296875 0.03125 1.59375 -0.390625 1.59375 -0.90625 C 1.59375 -1.40625 1.3125 -1.8125 0.859375 -1.8125 Z M 0.359375 -0.875 C 0.359375 -1.3125 0.53125 -1.625 0.859375 -1.625 C 1.140625 -1.625 1.359375 -1.359375 1.359375 -0.90625 C 1.359375 -0.484375 1.1875 -0.15625 0.859375 -0.15625 C 0.53125 -0.15625 0.359375 -0.484375 0.359375 -0.875 Z M 0.359375 -0.875 "/></g></g></g><g fill="#0e2442" fill-opacity="1"><g transform="translate(40.841085, 23.719904)"><g><path d="M 0.21875 -1.78125 L 0.21875 -0.609375 C 0.21875 -0.390625 0.265625 -0.265625 0.34375 -0.171875 C 0.453125 -0.03125 0.625 0.03125 0.828125 0.03125 C 1.109375 0.03125 1.296875 -0.09375 1.375 -0.265625 C 1.421875 -0.34375 1.4375 -0.46875 1.4375 -0.640625 L 1.4375 -1.78125 L 1.265625 -1.78125 L 1.265625 -0.578125 C 1.265625 -0.28125 1.0625 -0.171875 0.84375 -0.171875 C 0.734375 -0.171875 0.625 -0.203125 0.546875 -0.265625 C 0.484375 -0.328125 0.4375 -0.4375 0.4375 -0.609375 L 0.4375 -1.78125 Z M 0.21875 -1.78125 "/></g></g></g><g fill="#0e2442" fill-opacity="1"><g transform="translate(43.078113, 23.719904)"><g><path d="M 0.203125 -1.78125 L 0.203125 0 L 0.4375 0 L 0.4375 -0.765625 L 0.921875 -0.765625 L 1.25 0 L 1.484375 0 L 1.140625 -0.828125 C 1.34375 -0.890625 1.46875 -1.078125 1.46875 -1.28125 C 1.46875 -1.5 1.328125 -1.78125 0.90625 -1.78125 Z M 0.4375 -0.953125 L 0.4375 -1.59375 L 0.90625 -1.59375 C 1.140625 -1.59375 1.25 -1.453125 1.25 -1.28125 C 1.25 -1.109375 1.140625 -0.953125 0.890625 -0.953125 Z M 0.4375 -0.953125 "/></g></g></g><g fill="#0e2442" fill-opacity="1"><g transform="translate(45.263313, 23.719904)"><g/></g></g><g fill="#0e2442" fill-opacity="1"><g transform="translate(46.619262, 23.719904)"><g><path d="M 0.890625 -1.8125 C 0.421875 -1.8125 0.125 -1.40625 0.125 -0.875 C 0.125 -0.390625 0.390625 0.03125 0.859375 0.03125 C 1.078125 0.03125 1.265625 -0.0625 1.359375 -0.203125 L 1.421875 0.015625 L 1.5625 0.015625 L 1.5625 -0.890625 L 0.890625 -0.890625 L 0.890625 -0.703125 L 1.328125 -0.703125 L 1.328125 -0.65625 C 1.328125 -0.453125 1.28125 -0.375 1.21875 -0.296875 C 1.15625 -0.21875 1.03125 -0.15625 0.890625 -0.15625 C 0.59375 -0.15625 0.359375 -0.40625 0.359375 -0.875 C 0.359375 -1.3125 0.546875 -1.625 0.875 -1.625 C 1.109375 -1.625 1.28125 -1.46875 1.328125 -1.25 L 1.53125 -1.296875 C 1.453125 -1.625 1.21875 -1.8125 0.890625 -1.8125 Z M 0.890625 -1.8125 "/></g></g></g><g fill="#0e2442" fill-opacity="1"><g transform="translate(48.908119, 23.719904)"><g><path d="M 0.59375 -1.78125 L 0.015625 0 L 0.203125 0 L 0.359375 -0.515625 L 1.03125 -0.515625 L 1.203125 0 L 1.4375 0 L 0.859375 -1.78125 Z M 0.96875 -0.6875 L 0.421875 -0.6875 L 0.703125 -1.546875 Z M 0.96875 -0.6875 "/></g></g></g><g fill="#0e2442" fill-opacity="1"><g transform="translate(50.937835, 23.719904)"><g><path d="M 0.03125 -1.78125 L 0.03125 -1.578125 L 0.53125 -1.578125 L 0.53125 0 L 0.765625 0 L 0.765625 -1.578125 L 1.265625 -1.578125 L 1.265625 -1.78125 Z M 0.03125 -1.78125 "/></g></g></g><g fill="#0e2442" fill-opacity="1"><g transform="translate(52.812066, 23.719904)"><g><path d="M 0.21875 -1.78125 L 0.21875 0 L 1.375 0 L 1.375 -0.1875 L 0.4375 -0.1875 L 0.4375 -0.84375 L 1.15625 -0.84375 L 1.15625 -1.015625 L 0.4375 -1.015625 L 0.4375 -1.59375 L 1.34375 -1.59375 L 1.34375 -1.78125 Z M 0.21875 -1.78125 "/></g></g></g><g fill="#0e2442" fill-opacity="1"><g transform="translate(54.841783, 23.719904)"><g><path d="M 0.03125 -1.78125 L 0.484375 0 L 0.703125 0 L 1.0625 -1.375 L 1.453125 0 L 1.671875 0 L 2.109375 -1.78125 L 1.90625 -1.78125 L 1.578125 -0.34375 L 1.171875 -1.78125 L 0.984375 -1.78125 L 0.609375 -0.34375 L 0.25 -1.78125 Z M 0.03125 -1.78125 "/></g></g></g><g fill="#0e2442" fill-opacity="1"><g transform="translate(57.545265, 23.719904)"><g><path d="M 0.59375 -1.78125 L 0.015625 0 L 0.203125 0 L 0.359375 -0.515625 L 1.03125 -0.515625 L 1.203125 0 L 1.4375 0 L 0.859375 -1.78125 Z M 0.96875 -0.6875 L 0.421875 -0.6875 L 0.703125 -1.546875 Z M 0.96875 -0.6875 "/></g></g></g><g fill="#0e2442" fill-opacity="1"><g transform="translate(59.574982, 23.719904)"><g><path d="M 0.015625 -1.78125 L 0.609375 -0.75 L 0.609375 0 L 0.84375 0 L 0.84375 -0.75 L 1.4375 -1.78125 L 1.234375 -1.78125 L 0.75 -0.953125 L 0.28125 -1.78125 Z M 0.015625 -1.78125 "/></g></g></g><g fill="#0e2442" fill-opacity="1"><g transform="translate(61.604699, 23.719904)"><g/></g></g><g fill="#0e2442" fill-opacity="1"><g transform="translate(62.960649, 23.719904)"><g><path d="M 0.21875 -1.78125 L 0.21875 0 L 0.4375 0 L 0.4375 -0.84375 L 1.15625 -0.84375 L 1.15625 -1.015625 L 0.4375 -1.015625 L 0.4375 -1.59375 L 1.296875 -1.59375 L 1.296875 -1.78125 Z M 0.21875 -1.78125 "/></g></g></g><g fill="#0e2442" fill-opacity="1"><g transform="translate(64.783052, 23.719904)"><g><path d="M 0.859375 -1.8125 C 0.390625 -1.8125 0.125 -1.390625 0.125 -0.875 C 0.125 -0.375 0.390625 0.03125 0.859375 0.03125 C 1.296875 0.03125 1.59375 -0.390625 1.59375 -0.90625 C 1.59375 -1.40625 1.3125 -1.8125 0.859375 -1.8125 Z M 0.359375 -0.875 C 0.359375 -1.3125 0.53125 -1.625 0.859375 -1.625 C 1.140625 -1.625 1.359375 -1.359375 1.359375 -0.90625 C 1.359375 -0.484375 1.1875 -0.15625 0.859375 -0.15625 C 0.53125 -0.15625 0.359375 -0.484375 0.359375 -0.875 Z M 0.359375 -0.875 "/></g></g></g><g fill="#0e2442" fill-opacity="1"><g transform="translate(67.071908, 23.719904)"><g><path d="M 0.203125 -1.78125 L 0.203125 0 L 0.4375 0 L 0.4375 -0.765625 L 0.921875 -0.765625 L 1.25 0 L 1.484375 0 L 1.140625 -0.828125 C 1.34375 -0.890625 1.46875 -1.078125 1.46875 -1.28125 C 1.46875 -1.5 1.328125 -1.78125 0.90625 -1.78125 Z M 0.4375 -0.953125 L 0.4375 -1.59375 L 0.90625 -1.59375 C 1.140625 -1.59375 1.25 -1.453125 1.25 -1.28125 C 1.25 -1.109375 1.140625 -0.953125 0.890625 -0.953125 Z M 0.4375 -0.953125 "/></g></g></g><g fill="#0e2442" fill-opacity="1"><g transform="translate(69.257109, 23.719904)"><g/></g></g><g fill="#0e2442" fill-opacity="1"><g transform="translate(70.613058, 23.719904)"><g><path d="M 0.203125 -1.78125 L 0.203125 0 L 0.390625 0 L 0.390625 -1.546875 L 1.296875 0 L 1.515625 0 L 1.515625 -1.78125 L 1.328125 -1.78125 L 1.328125 -0.328125 L 0.484375 -1.78125 Z M 0.203125 -1.78125 "/></g></g></g><g fill="#0e2442" fill-opacity="1"><g transform="translate(72.901915, 23.719904)"><g><path d="M 0.21875 -1.78125 L 0.21875 0 L 1.375 0 L 1.375 -0.1875 L 0.4375 -0.1875 L 0.4375 -0.84375 L 1.15625 -0.84375 L 1.15625 -1.015625 L 0.4375 -1.015625 L 0.4375 -1.59375 L 1.34375 -1.59375 L 1.34375 -1.78125 Z M 0.21875 -1.78125 "/></g></g></g><g fill="#0e2442" fill-opacity="1"><g transform="translate(74.931632, 23.719904)"><g><path d="M 0.03125 -1.78125 L 0.484375 0 L 0.703125 0 L 1.0625 -1.375 L 1.453125 0 L 1.671875 0 L 2.109375 -1.78125 L 1.90625 -1.78125 L 1.578125 -0.34375 L 1.171875 -1.78125 L 0.984375 -1.78125 L 0.609375 -0.34375 L 0.25 -1.78125 Z M 0.03125 -1.78125 "/></g></g></g><g fill="#0e2442" fill-opacity="1"><g transform="translate(77.635111, 23.719904)"><g/></g></g><g fill="#0e2442" fill-opacity="1"><g transform="translate(78.991061, 23.719904)"><g><path d="M 0.203125 -1.78125 L 0.203125 0 L 0.953125 0 C 1.234375 0 1.484375 -0.15625 1.484375 -0.484375 C 1.484375 -0.703125 1.34375 -0.890625 1.125 -0.9375 L 1.125 -0.953125 C 1.3125 -0.984375 1.4375 -1.140625 1.4375 -1.34375 C 1.4375 -1.578125 1.265625 -1.78125 0.921875 -1.78125 Z M 0.4375 -1.015625 L 0.4375 -1.59375 L 0.859375 -1.59375 C 1.109375 -1.59375 1.21875 -1.484375 1.21875 -1.3125 C 1.21875 -1.09375 1.03125 -1.015625 0.84375 -1.015625 Z M 0.4375 -0.1875 L 0.4375 -0.84375 L 0.90625 -0.84375 C 1.140625 -0.84375 1.265625 -0.6875 1.265625 -0.5 C 1.265625 -0.3125 1.140625 -0.1875 0.890625 -0.1875 Z M 0.4375 -0.1875 "/></g></g></g><g fill="#0e2442" fill-opacity="1"><g transform="translate(81.176261, 23.719904)"><g><path d="M 0.21875 -1.78125 L 0.21875 0 L 1.375 0 L 1.375 -0.1875 L 0.4375 -0.1875 L 0.4375 -0.84375 L 1.15625 -0.84375 L 1.15625 -1.015625 L 0.4375 -1.015625 L 0.4375 -1.59375 L 1.34375 -1.59375 L 1.34375 -1.78125 Z M 0.21875 -1.78125 "/></g></g></g><g fill="#0e2442" fill-opacity="1"><g transform="translate(83.205978, 23.719904)"><g><path d="M 0.890625 -1.8125 C 0.421875 -1.8125 0.125 -1.40625 0.125 -0.875 C 0.125 -0.390625 0.390625 0.03125 0.859375 0.03125 C 1.078125 0.03125 1.265625 -0.0625 1.359375 -0.203125 L 1.421875 0.015625 L 1.5625 0.015625 L 1.5625 -0.890625 L 0.890625 -0.890625 L 0.890625 -0.703125 L 1.328125 -0.703125 L 1.328125 -0.65625 C 1.328125 -0.453125 1.28125 -0.375 1.21875 -0.296875 C 1.15625 -0.21875 1.03125 -0.15625 0.890625 -0.15625 C 0.59375 -0.15625 0.359375 -0.40625 0.359375 -0.875 C 0.359375 -1.3125 0.546875 -1.625 0.875 -1.625 C 1.109375 -1.625 1.28125 -1.46875 1.328125 -1.25 L 1.53125 -1.296875 C 1.453125 -1.625 1.21875 -1.8125 0.890625 -1.8125 Z M 0.890625 -1.8125 "/></g></g></g><g fill="#0e2442" fill-opacity="1"><g transform="translate(85.494835, 23.719904)"><g><path d="M 0.21875 -1.78125 L 0.21875 0 L 0.453125 0 L 0.453125 -1.78125 Z M 0.21875 -1.78125 "/></g></g></g><g fill="#0e2442" fill-opacity="1"><g transform="translate(86.747129, 23.719904)"><g><path d="M 0.203125 -1.78125 L 0.203125 0 L 0.390625 0 L 0.390625 -1.546875 L 1.296875 0 L 1.515625 0 L 1.515625 -1.78125 L 1.328125 -1.78125 L 1.328125 -0.328125 L 0.484375 -1.78125 Z M 0.203125 -1.78125 "/></g></g></g><g fill="#0e2442" fill-opacity="1"><g transform="translate(89.035985, 23.719904)"><g><path d="M 0.203125 -1.78125 L 0.203125 0 L 0.390625 0 L 0.390625 -1.546875 L 1.296875 0 L 1.515625 0 L 1.515625 -1.78125 L 1.328125 -1.78125 L 1.328125 -0.328125 L 0.484375 -1.78125 Z M 0.203125 -1.78125 "/></g></g></g><g fill="#0e2442" fill-opacity="1"><g transform="translate(91.324841, 23.719904)"><g><path d="M 0.21875 -1.78125 L 0.21875 0 L 1.375 0 L 1.375 -0.1875 L 0.4375 -0.1875 L 0.4375 -0.84375 L 1.15625 -0.84375 L 1.15625 -1.015625 L 0.4375 -1.015625 L 0.4375 -1.59375 L 1.34375 -1.59375 L 1.34375 -1.78125 Z M 0.21875 -1.78125 "/></g></g></g><g fill="#0e2442" fill-opacity="1"><g transform="translate(93.354558, 23.719904)"><g><path d="M 0.203125 -1.78125 L 0.203125 0 L 0.4375 0 L 0.4375 -0.765625 L 0.921875 -0.765625 L 1.25 0 L 1.484375 0 L 1.140625 -0.828125 C 1.34375 -0.890625 1.46875 -1.078125 1.46875 -1.28125 C 1.46875 -1.5 1.328125 -1.78125 0.90625 -1.78125 Z M 0.4375 -0.953125 L 0.4375 -1.59375 L 0.90625 -1.59375 C 1.140625 -1.59375 1.25 -1.453125 1.25 -1.28125 C 1.25 -1.109375 1.140625 -0.953125 0.890625 -0.953125 Z M 0.4375 -0.953125 "/></g></g></g><g fill="#0e2442" fill-opacity="1"><g transform="translate(95.539759, 23.719904)"><g><path d="M 0.796875 -1.8125 C 0.453125 -1.8125 0.203125 -1.625 0.203125 -1.3125 C 0.203125 -1.09375 0.34375 -0.921875 0.59375 -0.859375 L 0.96875 -0.765625 C 1.171875 -0.71875 1.265625 -0.625 1.265625 -0.484375 C 1.265625 -0.28125 1.109375 -0.15625 0.84375 -0.15625 C 0.578125 -0.15625 0.375 -0.296875 0.3125 -0.53125 L 0.109375 -0.484375 C 0.234375 -0.140625 0.46875 0.03125 0.828125 0.03125 C 1.265625 0.03125 1.5 -0.203125 1.5 -0.515625 C 1.5 -0.734375 1.34375 -0.90625 1.109375 -0.96875 L 0.640625 -1.09375 C 0.515625 -1.125 0.421875 -1.203125 0.421875 -1.34375 C 0.421875 -1.515625 0.609375 -1.625 0.796875 -1.625 C 1 -1.625 1.203125 -1.5 1.234375 -1.3125 L 1.4375 -1.375 C 1.34375 -1.640625 1.109375 -1.8125 0.796875 -1.8125 Z M 0.796875 -1.8125 "/></g></g></g></svg>