<svg xmlns="http://www.w3.org/2000/svg" xmlns:xlink="http://www.w3.org/1999/xlink" width="55" zoomAndPan="magnify" viewBox="0 0 41.25 41.250001" height="55" preserveAspectRatio="xMidYMid meet" version="1.0"><defs><g/><clipPath id="a4a789f588"><path d="M 26.363281 2.726562 L 33.53125 2.726562 L 33.53125 26.253906 L 26.363281 26.253906 Z M 26.363281 2.726562 " clip-rule="nonzero"/></clipPath><clipPath id="3dd2f9350f"><path d="M 33.53125 5.117188 L 33.53125 26.238281 L 26.363281 23.847656 L 26.363281 2.726562 Z M 33.53125 5.117188 " clip-rule="nonzero"/></clipPath><clipPath id="bc6da4d3d2"><path d="M 20.378906 2.710938 L 26.375 2.710938 L 26.375 9.457031 L 20.378906 9.457031 Z M 20.378906 2.710938 " clip-rule="nonzero"/></clipPath><clipPath id="d22d7330e2"><path d="M 20.378906 4.710938 L 20.378906 9.457031 L 26.375 7.457031 L 26.375 2.710938 Z M 20.378906 4.710938 " clip-rule="nonzero"/></clipPath><clipPath id="1e3e17752e"><path d="M 12.867188 6.484375 L 20.359375 6.484375 L 20.359375 27.035156 L 12.867188 27.035156 Z M 12.867188 6.484375 " clip-rule="nonzero"/></clipPath><clipPath id="a4f60e9173"><path d="M 20.359375 8.980469 L 20.359375 27.023438 L 12.867188 24.523438 L 12.867188 6.484375 Z M 20.359375 8.980469 " clip-rule="nonzero"/></clipPath><clipPath id="ff1b7a2391"><path d="M 6.972656 6.46875 L 12.878906 6.46875 L 12.878906 14.472656 L 6.972656 14.472656 Z M 6.972656 6.46875 " clip-rule="nonzero"/></clipPath><clipPath id="a0fea11da9"><path d="M 6.972656 8.445312 L 6.972656 14.472656 L 12.878906 12.503906 L 12.878906 6.476562 Z M 6.972656 8.445312 " clip-rule="nonzero"/></clipPath></defs><g clip-path="url(#a4a789f588)"><g clip-path="url(#3dd2f9350f)"><path fill="#ffffff" d="M 33.53125 2.726562 L 33.53125 26.226562 L 26.363281 26.226562 L 26.363281 2.726562 Z M 33.53125 2.726562 " fill-opacity="1" fill-rule="nonzero"/></g></g><g clip-path="url(#bc6da4d3d2)"><g clip-path="url(#d22d7330e2)"><path fill="#c0c0c0" d="M 20.378906 9.457031 L 20.378906 2.710938 L 26.375 2.710938 L 26.375 9.457031 Z M 20.378906 9.457031 " fill-opacity="1" fill-rule="nonzero"/></g></g><g clip-path="url(#1e3e17752e)"><g clip-path="url(#a4f60e9173)"><path fill="#ffffff" d="M 20.359375 6.484375 L 20.359375 27.035156 L 12.867188 27.035156 L 12.867188 6.484375 Z M 20.359375 6.484375 " fill-opacity="1" fill-rule="nonzero"/></g></g><g clip-path="url(#ff1b7a2391)"><g clip-path="url(#a0fea11da9)"><path fill="#c0c0c0" d="M 6.972656 14.472656 L 6.972656 6.46875 L 12.878906 6.46875 L 12.878906 14.472656 Z M 6.972656 14.472656 " fill-opacity="1" fill-rule="nonzero"/></g></g><g fill="#cd9b43" fill-opacity="1"><g transform="translate(2.441338, 34.620034)"><g><path d="M 4.5625 -3.796875 L 4.5625 0 L 4.171875 0 L 4.171875 -3.03125 L 2.6875 -0.484375 L 2.5 -0.484375 L 1 -3.015625 L 1 0 L 0.625 0 L 0.625 -3.796875 L 0.953125 -3.796875 L 2.59375 -0.984375 L 4.234375 -3.796875 Z M 4.5625 -3.796875 "/></g></g></g><g fill="#cd9b43" fill-opacity="1"><g transform="translate(7.624589, 34.620034)"><g><path d="M 3.203125 0 L 2.34375 -1.21875 C 2.25 -1.207031 2.144531 -1.203125 2.03125 -1.203125 L 1.015625 -1.203125 L 1.015625 0 L 0.625 0 L 0.625 -3.796875 L 2.03125 -3.796875 C 2.519531 -3.796875 2.898438 -3.675781 3.171875 -3.4375 C 3.453125 -3.207031 3.59375 -2.894531 3.59375 -2.5 C 3.59375 -2.195312 3.515625 -1.941406 3.359375 -1.734375 C 3.210938 -1.535156 3 -1.390625 2.71875 -1.296875 L 3.65625 0 Z M 2.03125 -1.546875 C 2.40625 -1.546875 2.691406 -1.628906 2.890625 -1.796875 C 3.085938 -1.960938 3.1875 -2.195312 3.1875 -2.5 C 3.1875 -2.800781 3.085938 -3.035156 2.890625 -3.203125 C 2.691406 -3.367188 2.40625 -3.453125 2.03125 -3.453125 L 1.015625 -3.453125 L 1.015625 -1.546875 Z M 2.03125 -1.546875 "/></g></g></g><g fill="#cd9b43" fill-opacity="1"><g transform="translate(11.548662, 34.620034)"><g><path d="M 3 -1.015625 L 0.890625 -1.015625 L 0.421875 0 L 0.015625 0 L 1.75 -3.796875 L 2.140625 -3.796875 L 3.875 0 L 3.453125 0 Z M 2.859375 -1.34375 L 1.9375 -3.375 L 1.03125 -1.34375 Z M 2.859375 -1.34375 "/></g></g></g><g fill="#cd9b43" fill-opacity="1"><g transform="translate(15.440172, 34.620034)"><g/></g></g><g fill="#ffffff" fill-opacity="1"><g transform="translate(16.862831, 34.620034)"><g><path d="M 3.203125 0 L 2.34375 -1.21875 C 2.25 -1.207031 2.144531 -1.203125 2.03125 -1.203125 L 1.015625 -1.203125 L 1.015625 0 L 0.625 0 L 0.625 -3.796875 L 2.03125 -3.796875 C 2.519531 -3.796875 2.898438 -3.675781 3.171875 -3.4375 C 3.453125 -3.207031 3.59375 -2.894531 3.59375 -2.5 C 3.59375 -2.195312 3.515625 -1.941406 3.359375 -1.734375 C 3.210938 -1.535156 3 -1.390625 2.71875 -1.296875 L 3.65625 0 Z M 2.03125 -1.546875 C 2.40625 -1.546875 2.691406 -1.628906 2.890625 -1.796875 C 3.085938 -1.960938 3.1875 -2.195312 3.1875 -2.5 C 3.1875 -2.800781 3.085938 -3.035156 2.890625 -3.203125 C 2.691406 -3.367188 2.40625 -3.453125 2.03125 -3.453125 L 1.015625 -3.453125 L 1.015625 -1.546875 Z M 2.03125 -1.546875 "/></g></g></g><g fill="#ffffff" fill-opacity="1"><g transform="translate(20.786904, 34.620034)"><g><path d="M 3.296875 -0.34375 L 3.296875 0 L 0.625 0 L 0.625 -3.796875 L 3.21875 -3.796875 L 3.21875 -3.453125 L 1.015625 -3.453125 L 1.015625 -2.09375 L 2.984375 -2.09375 L 2.984375 -1.75 L 1.015625 -1.75 L 1.015625 -0.34375 Z M 3.296875 -0.34375 "/></g></g></g><g fill="#ffffff" fill-opacity="1"><g transform="translate(24.417894, 34.620034)"><g><path d="M 3 -1.015625 L 0.890625 -1.015625 L 0.421875 0 L 0.015625 0 L 1.75 -3.796875 L 2.140625 -3.796875 L 3.875 0 L 3.453125 0 Z M 2.859375 -1.34375 L 1.9375 -3.375 L 1.03125 -1.34375 Z M 2.859375 -1.34375 "/></g></g></g><g fill="#ffffff" fill-opacity="1"><g transform="translate(28.309404, 34.620034)"><g><path d="M 0.625 -3.796875 L 1.015625 -3.796875 L 1.015625 -0.34375 L 3.140625 -0.34375 L 3.140625 0 L 0.625 0 Z M 0.625 -3.796875 "/></g></g></g><g fill="#ffffff" fill-opacity="1"><g transform="translate(31.506195, 34.620034)"><g><path d="M 1.359375 -3.453125 L 0.015625 -3.453125 L 0.015625 -3.796875 L 3.09375 -3.796875 L 3.09375 -3.453125 L 1.75 -3.453125 L 1.75 0 L 1.359375 0 Z M 1.359375 -3.453125 "/></g></g></g><g fill="#ffffff" fill-opacity="1"><g transform="translate(34.621573, 34.620034)"><g><path d="M 1.921875 -1.3125 L 1.921875 0 L 1.53125 0 L 1.53125 -1.3125 L 0 -3.796875 L 0.4375 -3.796875 L 1.734375 -1.671875 L 3.03125 -3.796875 L 3.4375 -3.796875 Z M 1.921875 -1.3125 "/></g></g></g><g fill="#ffffff" fill-opacity="1"><g transform="translate(2.537509, 37.083123)"><g><path d="M 0.015625 -1 L 0.34375 -0.421875 L 0.34375 0 L 0.46875 0 L 0.46875 -0.421875 L 0.8125 -1 L 0.703125 -1 L 0.421875 -0.546875 L 0.15625 -1 Z M 0.015625 -1 "/></g></g></g><g fill="#ffffff" fill-opacity="1"><g transform="translate(3.693126, 37.083123)"><g><path d="M 0.484375 -1.015625 C 0.21875 -1.015625 0.078125 -0.78125 0.078125 -0.5 C 0.078125 -0.203125 0.21875 0.015625 0.484375 0.015625 C 0.734375 0.015625 0.90625 -0.21875 0.90625 -0.515625 C 0.90625 -0.796875 0.75 -1.015625 0.484375 -1.015625 Z M 0.203125 -0.5 C 0.203125 -0.734375 0.296875 -0.921875 0.484375 -0.921875 C 0.640625 -0.921875 0.765625 -0.765625 0.765625 -0.515625 C 0.765625 -0.28125 0.671875 -0.09375 0.484375 -0.09375 C 0.296875 -0.09375 0.203125 -0.265625 0.203125 -0.5 Z M 0.203125 -0.5 "/></g></g></g><g fill="#ffffff" fill-opacity="1"><g transform="translate(4.996284, 37.083123)"><g><path d="M 0.125 -1 L 0.125 -0.34375 C 0.125 -0.21875 0.15625 -0.140625 0.1875 -0.09375 C 0.25 -0.015625 0.359375 0.015625 0.46875 0.015625 C 0.625 0.015625 0.734375 -0.046875 0.78125 -0.15625 C 0.8125 -0.203125 0.8125 -0.265625 0.8125 -0.359375 L 0.8125 -1 L 0.71875 -1 L 0.71875 -0.328125 C 0.71875 -0.15625 0.609375 -0.09375 0.484375 -0.09375 C 0.421875 -0.09375 0.359375 -0.109375 0.3125 -0.140625 C 0.265625 -0.1875 0.25 -0.25 0.25 -0.34375 L 0.25 -1 Z M 0.125 -1 "/></g></g></g><g fill="#ffffff" fill-opacity="1"><g transform="translate(6.269934, 37.083123)"><g><path d="M 0.125 -1 L 0.125 0 L 0.25 0 L 0.25 -0.4375 L 0.515625 -0.4375 L 0.703125 0 L 0.84375 0 L 0.640625 -0.46875 C 0.765625 -0.5 0.828125 -0.609375 0.828125 -0.71875 C 0.828125 -0.84375 0.75 -1 0.515625 -1 Z M 0.25 -0.53125 L 0.25 -0.90625 L 0.515625 -0.90625 C 0.65625 -0.90625 0.703125 -0.8125 0.703125 -0.734375 C 0.703125 -0.625 0.640625 -0.53125 0.5 -0.53125 Z M 0.25 -0.53125 "/></g></g></g><g fill="#ffffff" fill-opacity="1"><g transform="translate(7.514075, 37.083123)"><g/></g></g><g fill="#ffffff" fill-opacity="1"><g transform="translate(8.286084, 37.083123)"><g><path d="M 0.5 -1.015625 C 0.234375 -1.015625 0.078125 -0.796875 0.078125 -0.5 C 0.078125 -0.21875 0.21875 0.015625 0.484375 0.015625 C 0.609375 0.015625 0.71875 -0.03125 0.765625 -0.125 L 0.796875 0 L 0.875 0 L 0.875 -0.515625 L 0.5 -0.515625 L 0.5 -0.40625 L 0.75 -0.40625 L 0.75 -0.375 C 0.75 -0.265625 0.734375 -0.21875 0.6875 -0.171875 C 0.65625 -0.125 0.59375 -0.09375 0.5 -0.09375 C 0.328125 -0.09375 0.203125 -0.21875 0.203125 -0.5 C 0.203125 -0.75 0.3125 -0.921875 0.5 -0.921875 C 0.625 -0.921875 0.71875 -0.828125 0.75 -0.703125 L 0.875 -0.734375 C 0.828125 -0.921875 0.6875 -1.015625 0.5 -1.015625 Z M 0.5 -1.015625 "/></g></g></g><g fill="#ffffff" fill-opacity="1"><g transform="translate(9.589242, 37.083123)"><g><path d="M 0.34375 -1 L 0.015625 0 L 0.125 0 L 0.203125 -0.296875 L 0.578125 -0.296875 L 0.6875 0 L 0.8125 0 L 0.484375 -1 Z M 0.546875 -0.390625 L 0.25 -0.390625 L 0.390625 -0.875 Z M 0.546875 -0.390625 "/></g></g></g><g fill="#ffffff" fill-opacity="1"><g transform="translate(10.744859, 37.083123)"><g><path d="M 0.015625 -1 L 0.015625 -0.890625 L 0.296875 -0.890625 L 0.296875 0 L 0.4375 0 L 0.4375 -0.890625 L 0.71875 -0.890625 L 0.71875 -1 Z M 0.015625 -1 "/></g></g></g><g fill="#ffffff" fill-opacity="1"><g transform="translate(11.811951, 37.083123)"><g><path d="M 0.125 -1 L 0.125 0 L 0.78125 0 L 0.78125 -0.109375 L 0.25 -0.109375 L 0.25 -0.484375 L 0.65625 -0.484375 L 0.65625 -0.578125 L 0.25 -0.578125 L 0.25 -0.90625 L 0.765625 -0.90625 L 0.765625 -1 Z M 0.125 -1 "/></g></g></g><g fill="#ffffff" fill-opacity="1"><g transform="translate(12.967568, 37.083123)"><g><path d="M 0.015625 -1 L 0.265625 0 L 0.390625 0 L 0.609375 -0.78125 L 0.828125 0 L 0.953125 0 L 1.1875 -1 L 1.078125 -1 L 0.890625 -0.1875 L 0.65625 -1 L 0.5625 -1 L 0.34375 -0.1875 L 0.140625 -1 Z M 0.015625 -1 "/></g></g></g><g fill="#ffffff" fill-opacity="1"><g transform="translate(14.506793, 37.083123)"><g><path d="M 0.34375 -1 L 0.015625 0 L 0.125 0 L 0.203125 -0.296875 L 0.578125 -0.296875 L 0.6875 0 L 0.8125 0 L 0.484375 -1 Z M 0.546875 -0.390625 L 0.25 -0.390625 L 0.390625 -0.875 Z M 0.546875 -0.390625 "/></g></g></g><g fill="#ffffff" fill-opacity="1"><g transform="translate(15.66241, 37.083123)"><g><path d="M 0.015625 -1 L 0.34375 -0.421875 L 0.34375 0 L 0.46875 0 L 0.46875 -0.421875 L 0.8125 -1 L 0.703125 -1 L 0.421875 -0.546875 L 0.15625 -1 Z M 0.015625 -1 "/></g></g></g><g fill="#ffffff" fill-opacity="1"><g transform="translate(16.818028, 37.083123)"><g/></g></g><g fill="#ffffff" fill-opacity="1"><g transform="translate(17.590036, 37.083123)"><g><path d="M 0.125 -1 L 0.125 0 L 0.25 0 L 0.25 -0.484375 L 0.65625 -0.484375 L 0.65625 -0.578125 L 0.25 -0.578125 L 0.25 -0.90625 L 0.734375 -0.90625 L 0.734375 -1 Z M 0.125 -1 "/></g></g></g><g fill="#ffffff" fill-opacity="1"><g transform="translate(18.62762, 37.083123)"><g><path d="M 0.484375 -1.015625 C 0.21875 -1.015625 0.078125 -0.78125 0.078125 -0.5 C 0.078125 -0.203125 0.21875 0.015625 0.484375 0.015625 C 0.734375 0.015625 0.90625 -0.21875 0.90625 -0.515625 C 0.90625 -0.796875 0.75 -1.015625 0.484375 -1.015625 Z M 0.203125 -0.5 C 0.203125 -0.734375 0.296875 -0.921875 0.484375 -0.921875 C 0.640625 -0.921875 0.765625 -0.765625 0.765625 -0.515625 C 0.765625 -0.28125 0.671875 -0.09375 0.484375 -0.09375 C 0.296875 -0.09375 0.203125 -0.265625 0.203125 -0.5 Z M 0.203125 -0.5 "/></g></g></g><g fill="#ffffff" fill-opacity="1"><g transform="translate(19.930778, 37.083123)"><g><path d="M 0.125 -1 L 0.125 0 L 0.25 0 L 0.25 -0.4375 L 0.515625 -0.4375 L 0.703125 0 L 0.84375 0 L 0.640625 -0.46875 C 0.765625 -0.5 0.828125 -0.609375 0.828125 -0.71875 C 0.828125 -0.84375 0.75 -1 0.515625 -1 Z M 0.25 -0.53125 L 0.25 -0.90625 L 0.515625 -0.90625 C 0.65625 -0.90625 0.703125 -0.8125 0.703125 -0.734375 C 0.703125 -0.625 0.640625 -0.53125 0.5 -0.53125 Z M 0.25 -0.53125 "/></g></g></g><g fill="#ffffff" fill-opacity="1"><g transform="translate(21.17492, 37.083123)"><g/></g></g><g fill="#ffffff" fill-opacity="1"><g transform="translate(21.946929, 37.083123)"><g><path d="M 0.109375 -1 L 0.109375 0 L 0.21875 0 L 0.21875 -0.875 L 0.734375 0 L 0.859375 0 L 0.859375 -1 L 0.75 -1 L 0.75 -0.1875 L 0.265625 -1 Z M 0.109375 -1 "/></g></g></g><g fill="#ffffff" fill-opacity="1"><g transform="translate(23.250087, 37.083123)"><g><path d="M 0.125 -1 L 0.125 0 L 0.78125 0 L 0.78125 -0.109375 L 0.25 -0.109375 L 0.25 -0.484375 L 0.65625 -0.484375 L 0.65625 -0.578125 L 0.25 -0.578125 L 0.25 -0.90625 L 0.765625 -0.90625 L 0.765625 -1 Z M 0.125 -1 "/></g></g></g><g fill="#ffffff" fill-opacity="1"><g transform="translate(24.405704, 37.083123)"><g><path d="M 0.015625 -1 L 0.265625 0 L 0.390625 0 L 0.609375 -0.78125 L 0.828125 0 L 0.953125 0 L 1.1875 -1 L 1.078125 -1 L 0.890625 -0.1875 L 0.65625 -1 L 0.5625 -1 L 0.34375 -0.1875 L 0.140625 -1 Z M 0.015625 -1 "/></g></g></g><g fill="#ffffff" fill-opacity="1"><g transform="translate(25.944928, 37.083123)"><g/></g></g><g fill="#ffffff" fill-opacity="1"><g transform="translate(26.716936, 37.083123)"><g><path d="M 0.125 -1 L 0.125 0 L 0.546875 0 C 0.703125 0 0.84375 -0.09375 0.84375 -0.28125 C 0.84375 -0.40625 0.765625 -0.5 0.640625 -0.53125 C 0.75 -0.5625 0.8125 -0.640625 0.8125 -0.765625 C 0.8125 -0.890625 0.71875 -1 0.53125 -1 Z M 0.25 -0.578125 L 0.25 -0.90625 L 0.484375 -0.90625 C 0.625 -0.90625 0.6875 -0.84375 0.6875 -0.75 C 0.6875 -0.625 0.59375 -0.578125 0.484375 -0.578125 Z M 0.25 -0.109375 L 0.25 -0.484375 L 0.515625 -0.484375 C 0.640625 -0.484375 0.71875 -0.390625 0.71875 -0.28125 C 0.71875 -0.171875 0.640625 -0.109375 0.5 -0.109375 Z M 0.25 -0.109375 "/></g></g></g><g fill="#ffffff" fill-opacity="1"><g transform="translate(27.961078, 37.083123)"><g><path d="M 0.125 -1 L 0.125 0 L 0.78125 0 L 0.78125 -0.109375 L 0.25 -0.109375 L 0.25 -0.484375 L 0.65625 -0.484375 L 0.65625 -0.578125 L 0.25 -0.578125 L 0.25 -0.90625 L 0.765625 -0.90625 L 0.765625 -1 Z M 0.125 -1 "/></g></g></g><g fill="#ffffff" fill-opacity="1"><g transform="translate(29.116696, 37.083123)"><g><path d="M 0.5 -1.015625 C 0.234375 -1.015625 0.078125 -0.796875 0.078125 -0.5 C 0.078125 -0.21875 0.21875 0.015625 0.484375 0.015625 C 0.609375 0.015625 0.71875 -0.03125 0.765625 -0.125 L 0.796875 0 L 0.875 0 L 0.875 -0.515625 L 0.5 -0.515625 L 0.5 -0.40625 L 0.75 -0.40625 L 0.75 -0.375 C 0.75 -0.265625 0.734375 -0.21875 0.6875 -0.171875 C 0.65625 -0.125 0.59375 -0.09375 0.5 -0.09375 C 0.328125 -0.09375 0.203125 -0.21875 0.203125 -0.5 C 0.203125 -0.75 0.3125 -0.921875 0.5 -0.921875 C 0.625 -0.921875 0.71875 -0.828125 0.75 -0.703125 L 0.875 -0.734375 C 0.828125 -0.921875 0.6875 -1.015625 0.5 -1.015625 Z M 0.5 -1.015625 "/></g></g></g><g fill="#ffffff" fill-opacity="1"><g transform="translate(30.419854, 37.083123)"><g><path d="M 0.125 -1 L 0.125 0 L 0.25 0 L 0.25 -1 Z M 0.125 -1 "/></g></g></g><g fill="#ffffff" fill-opacity="1"><g transform="translate(31.132846, 37.083123)"><g><path d="M 0.109375 -1 L 0.109375 0 L 0.21875 0 L 0.21875 -0.875 L 0.734375 0 L 0.859375 0 L 0.859375 -1 L 0.75 -1 L 0.75 -0.1875 L 0.265625 -1 Z M 0.109375 -1 "/></g></g></g><g fill="#ffffff" fill-opacity="1"><g transform="translate(32.436004, 37.083123)"><g><path d="M 0.109375 -1 L 0.109375 0 L 0.21875 0 L 0.21875 -0.875 L 0.734375 0 L 0.859375 0 L 0.859375 -1 L 0.75 -1 L 0.75 -0.1875 L 0.265625 -1 Z M 0.109375 -1 "/></g></g></g><g fill="#ffffff" fill-opacity="1"><g transform="translate(33.739163, 37.083123)"><g><path d="M 0.125 -1 L 0.125 0 L 0.25 0 L 0.25 -1 Z M 0.125 -1 "/></g></g></g><g fill="#ffffff" fill-opacity="1"><g transform="translate(34.452155, 37.083123)"><g><path d="M 0.109375 -1 L 0.109375 0 L 0.21875 0 L 0.21875 -0.875 L 0.734375 0 L 0.859375 0 L 0.859375 -1 L 0.75 -1 L 0.75 -0.1875 L 0.265625 -1 Z M 0.109375 -1 "/></g></g></g><g fill="#ffffff" fill-opacity="1"><g transform="translate(35.755313, 37.083123)"><g><path d="M 0.5 -1.015625 C 0.234375 -1.015625 0.078125 -0.796875 0.078125 -0.5 C 0.078125 -0.21875 0.21875 0.015625 0.484375 0.015625 C 0.609375 0.015625 0.71875 -0.03125 0.765625 -0.125 L 0.796875 0 L 0.875 0 L 0.875 -0.515625 L 0.5 -0.515625 L 0.5 -0.40625 L 0.75 -0.40625 L 0.75 -0.375 C 0.75 -0.265625 0.734375 -0.21875 0.6875 -0.171875 C 0.65625 -0.125 0.59375 -0.09375 0.5 -0.09375 C 0.328125 -0.09375 0.203125 -0.21875 0.203125 -0.5 C 0.203125 -0.75 0.3125 -0.921875 0.5 -0.921875 C 0.625 -0.921875 0.71875 -0.828125 0.75 -0.703125 L 0.875 -0.734375 C 0.828125 -0.921875 0.6875 -1.015625 0.5 -1.015625 Z M 0.5 -1.015625 "/></g></g></g><g fill="#ffffff" fill-opacity="1"><g transform="translate(37.058471, 37.083123)"><g><path d="M 0.453125 -1.015625 C 0.265625 -1.015625 0.109375 -0.921875 0.109375 -0.75 C 0.109375 -0.625 0.1875 -0.515625 0.34375 -0.484375 L 0.546875 -0.4375 C 0.65625 -0.40625 0.71875 -0.359375 0.71875 -0.265625 C 0.71875 -0.15625 0.625 -0.09375 0.46875 -0.09375 C 0.328125 -0.09375 0.21875 -0.171875 0.171875 -0.296875 L 0.0625 -0.265625 C 0.125 -0.078125 0.265625 0.015625 0.46875 0.015625 C 0.71875 0.015625 0.84375 -0.125 0.84375 -0.28125 C 0.84375 -0.421875 0.765625 -0.515625 0.625 -0.546875 L 0.359375 -0.609375 C 0.296875 -0.640625 0.234375 -0.671875 0.234375 -0.765625 C 0.234375 -0.859375 0.34375 -0.921875 0.453125 -0.921875 C 0.5625 -0.921875 0.671875 -0.84375 0.703125 -0.75 L 0.8125 -0.78125 C 0.765625 -0.9375 0.625 -1.015625 0.453125 -1.015625 Z M 0.453125 -1.015625 "/></g></g></g></svg>